{
  "accessors": [
    {
      "bufferView": 2,
      "componentType": 5126,
      "count": 12256,
      "max": [
        0.23174500465393066,
        0.4240809977054596,
        0.9967870116233826
      ],
      "min": [
        -0.23412400484085083,
        -0.4279550015926361,
        -0.9999729990959167
      ],
      "type": "VEC3"
    },
    {
      "bufferView": 2,
      "byteOffset": 147072,
      "componentType": 5126,
      "count": 12256,
      "max": [
        0.9999685287475586,
        0.9999958872795105,
        0.9967198967933655
      ],
      "min": [
        -0.9999685287475586,
        -0.9999904036521912,
        -0.9985719919204712
      ],
      "type": "VEC3"
    },
    {
      "bufferView": 1,
      "componentType": 5126,
      "count": 12256,
      "max": [
        0.9994519948959351,
        0.9932550191879272
      ],
      "min": [
        0.000547999981790781,
        0.000547999981790781
      ],
      "type": "VEC2"
    },
    {
      "bufferView": 0,
      "componentType": 5125,
      "count": 58680,
      "type": "SCALAR"
    }
  ],
  "asset": {
    "extras": {
      "author": "Trident.AI (https://sketchfab.com/Trident.AI)",
      "license": "SKETCHFAB Standard (https://sketchfab.com/licenses)",
      "source": "https://sketchfab.com/3d-models/tiger-2472faceb5f74008a2ac1322202ec585",
      "title": "Tiger"
    },
    "generator": "Sketchfab-16.59.0",
    "version": "2.0"
  },
  "bufferViews": [
    {
      "buffer": 0,
      "byteLength": 234720,
      "name": "floatBufferViews",
      "target": 34963
    },
    {
      "buffer": 0,
      "byteLength": 98048,
      "byteOffset": 234720,
      "byteStride": 8,
      "name": "floatBufferViews",
      "target": 34962
    },
    {
      "buffer": 0,
      "byteLength": 294144,
      "byteOffset": 332768,
      "byteStride": 12,
      "name": "floatBufferViews",
      "target": 34962
    }
  ],
  "buffers": [
    {
      "byteLength": 626912,
      "uri": "scene.bin"
    }
  ],
  "images": [
    {
      "uri": "textures/Material.001_baseColor.png"
    }
  ],
  "materials": [
    {
      "doubleSided": true,
      "name": "Material.001",
      "pbrMetallicRoughness": {
        "baseColorTexture": {
          "index": 0
        },
        "metallicFactor": 0.0,
        "roughnessFactor": 0.8211145618000169
      }
    }
  ],
  "meshes": [
    {
      "name": "Mesh1_Mesh1.007_Material.001_0",
      "primitives": [
        {
          "attributes": {
            "NORMAL": 1,
            "POSITION": 0,
            "TEXCOORD_0": 2
          },
          "indices": 3,
          "material": 0,
          "mode": 4
        }
      ]
    }
  ],
  "nodes": [
    {
      "children": [
        1
      ],
      "matrix": [
        1.0,
        0.0,
        0.0,
        0.0,
        0.0,
        2.220446049250313e-16,
        -1.0,
        0.0,
        0.0,
        1.0,
        2.220446049250313e-16,
        0.0,
        0.0,
        0.0,
        0.0,
        1.0
      ],
      "name": "Sketchfab_model"
    },
    {
      "children": [
        2
      ],
      "matrix": [
        0.009999999776482582,
        0.0,
        0.0,
        0.0,
        0.0,
        0.0,
        0.009999999776482582,
        0.0,
        0.0,
        -0.009999999776482582,
        0.0,
        0.0,
        0.0,
        0.0,
        0.0,
        1.0
      ],
      "name": "ee6279a675394aaaa3872471dc47aae0.fbx"
    },
    {
      "children": [
        3
      ],
      "name": "RootNode"
    },
    {
      "children": [
        4
      ],
      "matrix": [
        100.0,
        0.0,
        0.0,
        0.0,
        0.0,
        99.99999999999972,
        -7.5497901264043296e-06,
        0.0,
        0.0,
        7.5497901264043296e-06,
        99.99999999999972,
        0.0,
        0.0,
        0.0,
        0.0,
        1.0
      ],
      "name": "Mesh1_Mesh1.007"
    },
    {
      "mesh": 0,
      "name": "Mesh1_Mesh1.007_Material.001_0"
    }
  ],
  "samplers": [
    {
      "magFilter": 9729,
      "minFilter": 9987,
      "wrapS": 10497,
      "wrapT": 10497
    }
  ],
  "scene": 0,
  "scenes": [
    {
      "name": "Sketchfab_Scene",
      "nodes": [
        0
      ]
    }
  ],
  "textures": [
    {
      "sampler": 0,
      "source": 0
    }
  ]
}
